# xmcd
#
# Track frame offsets:
#	150
#	14242
#	27917
#	40890
#	54200
#	65067
#	78947
#	91752
#	106260
#	120505
#	135052
#	147645
#	161362
#	173652
#	186897
#	202350
#	217302
#	230690
#	243817
#	257577
#	269400
#	284505
#
# Disc length: 3971 seconds
#
# Revision: 1
# Processed by: cddbd v1.5PL3 Copyright (c) Steve Scherf et al.
# Submitted via: audiograbber 1.81.03
#
DISCID=400f8116
DTITLE=Tampa Red - Complete Recorded Works in Chronological Order Vol. 9
DYEAR=1937
DGENRE=Blues
TTITLE0=Delta Woman Blues
TTITLE1=Deceitful Friend Blues
TTITLE2=Wrong Idea
TTITLE3=Whoopee Mama
TTITLE4=Travel On
TTITLE5=Seminole Blues
TTITLE6=The Most of Us Do
TTITLE7=We Gonna Get High Together
TTITLE8=Happily Married
TTITLE9=A Lie in My Heart
TTITLE10=Heck of a How-Do-You-Do
TTITLE11=That May Get it Now
TTITLE12=That Don't Matter Now
TTITLE13=Grouchy Hearted Woman
TTITLE14=Why Should I Care
TTITLE15=Got to Leave My Woman
TTITLE16=Now that You've Gone
TTITLE17=Rock it in Rhythm
TTITLE18=I Do
TTITLE19=Sweetest Gal in Town
TTITLE20=Crazy with the Blues
TTITLE21=Love with a Feeling
EXTD=DOCD-5209  11 October 1937 to 16 June 1938
EXTT0=
EXTT1=
EXTT2=
EXTT3=
EXTT4=
EXTT5=
EXTT6=
EXTT7=
EXTT8=
EXTT9=
EXTT10=
EXTT11=
EXTT12=
EXTT13=
EXTT14=
EXTT15=
EXTT16=
EXTT17=
EXTT18=
EXTT19=
EXTT20=
EXTT21=
PLAYORDER=
